<svg xmlns="http://www.w3.org/2000/svg" width="98.551" height="100.258" viewBox="0 0 98.551 100.258">
  <g id="noun_clap_1085294" transform="translate(0)">
    <path id="Path_3" data-name="Path 3" d="M102.755,70.6v-.155a18,18,0,0,0-1.744-5.949l-11-30.043a6.313,6.313,0,0,0-4.636-4.5,8.024,8.024,0,0,0-7.483,2.207,6.3,6.3,0,0,0-1.512,6.258v.188l-14.911-15c-3.5-3.5-7.814-2.848-10.276-.4a6.964,6.964,0,0,0-1.865,3.311l-3.6-3.6a7.086,7.086,0,0,0-9.989-.364,7.538,7.538,0,0,0-2.616,6.413,6.931,6.931,0,0,0-6.976,6.3l-4.062-3.079a7.042,7.042,0,0,0-7.13-1.1,7.858,7.858,0,0,0-4.68,6.159,7.031,7.031,0,0,0,2.781,6.479,6.7,6.7,0,0,0-3.168,2.285C7.769,48.8,7.857,53.307,12.1,56.541l3.1,2.351a6.788,6.788,0,0,0-3.51,2.539c-1.943,2.748-1.965,7.274,2.55,10.706L49.809,99.188A18.134,18.134,0,0,0,73.2,98a18.2,18.2,0,0,0,16.622-4.934l7.726-7.726a18.2,18.2,0,0,0,5.287-14.006A1.667,1.667,0,0,0,102.755,70.6ZM30.02,33.947a3.543,3.543,0,0,1,2.947-1.634,4.106,4.106,0,0,1,1.821.453h0l.364.408A6.788,6.788,0,0,0,30.02,37.9,3.521,3.521,0,0,1,30.02,33.947ZM13.563,37.766a4.558,4.558,0,0,1,2.682-3.488,3.708,3.708,0,0,1,3.852.64l8.6,6.512,1.722,1.3c.055.143.11.287.177.43a10,10,0,0,0,1.932,2.649l2.726,2.737a6.887,6.887,0,0,0-1.909.64,6.733,6.733,0,0,0-3.2,3.5L20.793,45.6l-.166-.155-5.419-4.106a3.709,3.709,0,0,1-1.645-3.576ZM51.818,96.55,16.267,69.6c-2.781-2.108-2.936-4.614-1.843-6.159a3.543,3.543,0,0,1,2.947-1.49,5.717,5.717,0,0,1,3.09,1.038L36.3,75.006a1.656,1.656,0,1,0,2-2.638L23.154,60.878l-.121-.11-.243-.177-8.664-6.622c-2.66-2.009-2.715-4.415-1.589-5.883s3.41-2.053,6.037-.1l.121.121,11.037,8.377a9.47,9.47,0,0,0,2.781,5.022L49.07,78.063l10.9,10.9a55.439,55.439,0,0,0,6.291,6.015,18.43,18.43,0,0,0,3.013,1.766l.21.1a14.878,14.878,0,0,1-17.671-.3Zm43.321-13.51-7.726,7.726a14.911,14.911,0,0,1-21.07,0L34.865,59.178a5.9,5.9,0,0,1-1.909-3.686A3.466,3.466,0,0,1,34.843,52.1a4.625,4.625,0,0,1,4.978,1h0l14.15,14.15a1.656,1.656,0,0,0,2.34-2.34L34.865,43.439a6.093,6.093,0,0,1-1.534-2.34A3.488,3.488,0,0,1,34.7,36.905c1.247-.784,3.311-.861,5.452,1.258v.077L61.6,59.664a1.656,1.656,0,0,0,2.34-2.34L42.536,35.89a.838.838,0,0,0-.066-.088l-4.8-4.834a3.565,3.565,0,0,1-.453-.53,3.819,3.819,0,0,1,.706-5.386,3.8,3.8,0,0,1,5.519.21L69.72,51.53a1.656,1.656,0,0,0,2.241-2.307L53.926,31.144c-2.064-2.064-1.689-4.293-.4-5.6s3.521-1.678,5.6.4L78.683,45.5a1.656,1.656,0,0,0,2.759-1.634L79.588,37.49a2.958,2.958,0,0,1,.7-3.057,4.746,4.746,0,0,1,4.3-1.258,3.035,3.035,0,0,1,2.274,2.318L97.9,65.724l.077.166a14.7,14.7,0,0,1,1.468,5.055,1.544,1.544,0,0,0,0,.155v.121A14.9,14.9,0,0,1,95.139,83.041Z" transform="translate(-4.317 -2.64)" fill="#587bb4"/>
    <path id="Path_4" data-name="Path 4" d="M11.362,8.653a1.656,1.656,0,1,0-2.307,2.362L20.4,22.229a1.656,1.656,0,0,0,2.329-2.351Z" transform="translate(-4.324 -3.945)" fill="#587bb4"/>
    <path id="Path_5" data-name="Path 5" d="M16.807,26.913a1.656,1.656,0,0,0,.441-3.256l-10.485-2.9a1.656,1.656,0,0,0-.883,3.19l10.485,2.9a1.655,1.655,0,0,0,.441.066Z" transform="translate(-4.713 -2.636)" fill="#587bb4"/>
    <path id="Path_6" data-name="Path 6" d="M25.353,4.341a1.656,1.656,0,0,0-1.512,1.832l.817,10.3A1.656,1.656,0,0,0,26.3,17.994h.132a1.656,1.656,0,0,0,1.523-1.887l-.817-10.3a1.656,1.656,0,0,0-1.788-1.468Z" transform="translate(-2.73 -4.334)" fill="#587bb4"/>
  </g>
</svg>
