<svg xmlns="http://www.w3.org/2000/svg" width="375" height="306.946" viewBox="0 0 375 306.946">
  <g id="Group_358" data-name="Group 358" transform="translate(0 -66)">
    <g id="Group_14" data-name="Group 14" transform="translate(0 -89.5)">
      <rect id="Rectangle_31" data-name="Rectangle 31" width="375" height="223" transform="translate(0 155.5)" fill="#f2f7ff"/>
    </g>
    <g id="Group_219" data-name="Group 219">
      <path id="Path_286" data-name="Path 286" d="M110.638,400.2h55.171V371.36h24.6v9.331H244.7v8.619h17.814V343.367h59.379v35.627h60.227v24.6H430.47V373.481h54.072v92.886h-373.9Z" transform="translate(-110.09 -177.741)" fill="#e3f1ff"/>
      <g id="Group_61" data-name="Group 61" transform="translate(65.963 228.059)">
        <g id="humaaans_sitting-4" data-name="humaaans/sitting-4" transform="translate(0)">
          <g id="A-Human_Sitting" data-name="A-Human/Sitting" transform="translate(0 0)">
            <g id="Head_Front_Curly" data-name="Head/Front/Curly" transform="translate(24.778)">
              <g id="Head" transform="translate(10.079 7.139)">
                <path id="Path_2" data-name="Path 2" d="M3.47,14.485A11.377,11.377,0,0,1,.444,6.31C1.074-2.677,13.585-.7,16.019,3.836s2.144,16.042-1,16.853c-1.254.323-3.926-.469-6.646-2.108l1.707,12.076H0Z" fill="#b28b67" fill-rule="evenodd"/>
              </g>
              <path id="hair" d="M30.563,4.687a2.18,2.18,0,0,0-1.527-1.548,2.011,2.011,0,0,0-.562-.056c-.068,0-.087.022-.118-.025a.621.621,0,0,1-.034-.162,3.058,3.058,0,0,0-.114-.378,3.089,3.089,0,0,0-.745-1.107A3.75,3.75,0,0,0,25.211.344a3.284,3.284,0,0,0-1.354.185A5.362,5.362,0,0,0,23.2.81c-.064.032-.272.19-.337.179S22.649.8,22.591.757A3.982,3.982,0,0,0,20.1,0a4.553,4.553,0,0,0-2.81.67,5.619,5.619,0,0,0-.507.421c-.085.079-.167.16-.245.245q-.071.077-.137.158c-.075.091-.063.121-.168.058a2.088,2.088,0,0,0-1.341-.3,3,3,0,0,0-.81.229c-.088.038-.291.188-.385.189s-.294-.138-.389-.173a3.192,3.192,0,0,0-1.618-.15,4.178,4.178,0,0,0-1.586.624A2.132,2.132,0,0,0,9.52,2.5c-.069.1-.132.2-.21.285-.046.052-.137.1-.161.171a3.484,3.484,0,0,0-.672-.3A1.656,1.656,0,0,0,7.53,2.7a3.762,3.762,0,0,0-1.492,1.06,4.236,4.236,0,0,0-.552.742q-.113.191-.207.392a1.459,1.459,0,0,1-.091.2c-.052.075-.086.077-.18.11a2.91,2.91,0,0,0-1.239.83A2.857,2.857,0,0,0,3.128,7.4a.693.693,0,0,1-.026.167c-.024.022-.119.012-.155.016a3.27,3.27,0,0,0-.372.066,3.075,3.075,0,0,0-.655.235,3.422,3.422,0,0,0-1.677,2,4.064,4.064,0,0,0,.064,2.782,2.718,2.718,0,0,0,.207.407c.049.079.065.08.033.163s-.1.183-.144.274a3.927,3.927,0,0,0-.3.93,4.362,4.362,0,0,0-.051,1.608,2.321,2.321,0,0,0,.248.705,2.024,2.024,0,0,0,.218.316c.043.051.088.1.136.146a.9.9,0,0,1,.086.08c.056.072.068.013.039.119a4.76,4.76,0,0,1-.189.44c-.058.149-.111.3-.159.453a6.68,6.68,0,0,0-.231.944A2.963,2.963,0,0,0,.41,21.084a1.834,1.834,0,0,0,.519.617,1.925,1.925,0,0,0,.341.207c.062.029.141.042.169.1s-.015.192-.025.264a4.4,4.4,0,0,0,.052,1.894A2.616,2.616,0,0,0,2.5,25.56a3.226,3.226,0,0,0,3.225.092,3.386,3.386,0,0,0,.72-.495,2.376,2.376,0,0,0,2.5.508,3.586,3.586,0,0,0,2.278-1.882,1.517,1.517,0,0,0,2.411-.317,2.009,2.009,0,0,0,.2-.661c.017-.121.006-.242.018-.362A1.868,1.868,0,0,1,14.031,22a2.472,2.472,0,0,0,.188-.893,4.531,4.531,0,0,0-.034-.479,1.647,1.647,0,0,1,.049-.421,1.925,1.925,0,0,1-.815-.1,1.61,1.61,0,0,1-.63-.443,3.677,3.677,0,0,1-.793-1.482,2.631,2.631,0,0,1,.969-3.227,6.084,6.084,0,0,1,2.853-.151c.689.156,1.47,1.676,1.508,1.819.024.088.012.2.093.257.179.13.473-.1.6-.206a2.385,2.385,0,0,0,.53-.7,8.717,8.717,0,0,0,.727-1.782c.134-.475.22-.965.4-1.427a2.183,2.183,0,0,1,.878-1.133,7.731,7.731,0,0,1,1.511-.612,3.749,3.749,0,0,0,1.4-.768,1.931,1.931,0,0,0,.24-.267c.055-.077.109-.223.193-.272.13-.076.32.121.432.192a4.994,4.994,0,0,1,1.39,1.38,8.587,8.587,0,0,1,.923,1.643,4.751,4.751,0,0,0,.621,1.37,2.619,2.619,0,0,0,1.562.118,1.974,1.974,0,0,0,.852-.738,1.146,1.146,0,0,0,.1-.751c-.03-.151-.091-.293-.125-.442a1.377,1.377,0,0,0-.115-.358.882.882,0,0,0-.55-.438,2.581,2.581,0,0,0,.594-.805,3.456,3.456,0,0,0,.307-1.049,1.274,1.274,0,0,0-.17-.817,2.152,2.152,0,0,0-.7-.579,4.539,4.539,0,0,0,.971-1.058A3.3,3.3,0,0,0,30.563,4.687Z" transform="translate(0 0)" fill="#191847" fill-rule="evenodd"/>
            </g>
            <g id="Bottom_Sitting_Sweat-Pants" data-name="Bottom/Sitting/Sweat-Pants" transform="translate(0 72.653)">
              <g id="Objects_Seat_Cube-2" data-name="Objects/Seat/Cube-2" transform="translate(0 17.638)">
                <path id="Seat" d="M6.719,0h48.3a6.719,6.719,0,0,1,6.719,6.719V45.356a6.719,6.719,0,0,1-6.719,6.719H6.719A6.719,6.719,0,0,1,0,45.356V6.719A6.719,6.719,0,0,1,6.719,0Zm6.719,11.759a1.68,1.68,0,0,0-1.68,1.68v25.2a1.68,1.68,0,0,0,1.68,1.68H48.3a1.68,1.68,0,0,0,1.68-1.68v-25.2a1.68,1.68,0,0,0-1.68-1.68Z" transform="translate(0 0)" fill="#c5cfd6" fill-rule="evenodd"/>
              </g>
              <path id="Skin" d="M63.99,54.8c-5.381-11.909-9.272-22.28-10.834-27.751-2.675-9.368-4.709-17.612-5.223-20.69C46.706-.98,57.365-1.408,58.774,2.241,60.907,7.763,64.63,25.906,69.1,53.31ZM1.575,17.427C6.512,15.476,23.8,9.369,32.139,7.641c2.4-.5,4.719-.958,6.9-1.375,6.49-1.239,9.852,10.469,3.6,11.369-15.567,2.24-37.635,4.554-39.524,4.814C.472,22.813-1.528,18.654,1.575,17.427Z" transform="translate(27.776 13.509)" fill="#b28b67" fill-rule="evenodd"/>
              <path id="Leg-Back" d="M26.7,16.553,0,2.959V0H3.176Q41.928,9.875,42.781,12.657q.009.03.017.06l.038.052c5.12,7.041,8.186,41.418,9.193,43.992l-9.811,1.464c-3.753-13.917-15.76-23.612-15.441-40.279A5.461,5.461,0,0,1,26.7,16.553Z" transform="translate(44.096 0)" fill="#466ca8" fill-rule="evenodd"/>
              <path id="Leg-Front" d="M21.117,24.627c-2.443-.489-4.693-.926-6.619-1.263C2.062,21.182-1.565,14.525.579,0H23.493c3.743,1.075,23.2,9.233,33.288,13.572,6.68,2.872,4.574,13.224.791,15.918a.369.369,0,0,1-.21.328c-20.349,8.434-36.447,4.009-41.824,5.423l-2.487-7.846Z" transform="translate(25.198 0)" fill="#587bb4" fill-rule="evenodd"/>
              <g id="Accessories_Shoe_Flat-Sneaker" data-name="Accessories/Shoe/Flat-Sneaker" transform="matrix(0.438, 0.899, -0.899, 0.438, 33.021, 27.938)">
                <path id="shoe" d="M.7,2.549A9.017,9.017,0,0,0,0,5.364,21.072,21.072,0,0,0,.378,8.68H24.065q.923-3.052-1.066-3.3t-3.3-.44L8.685.036A.42.42,0,0,0,8.13.249l0,.011L7.418,1.977a7.553,7.553,0,0,1-2.993.859A6.778,6.778,0,0,1,1.841,2.08h0a.84.84,0,0,0-1.114.414Q.715,2.521.7,2.549Z" transform="translate(0 0)" fill="#e4e4e4" fill-rule="evenodd"/>
              </g>
              <g id="Accessories_Shoe_Flat-Sneaker-2" data-name="Accessories/Shoe/Flat-Sneaker" transform="translate(88.612 63.554)">
                <path id="shoe-2" data-name="shoe" d="M.7,2.549A9.017,9.017,0,0,0,0,5.364,21.072,21.072,0,0,0,.378,8.68H24.065q.923-3.052-1.066-3.3t-3.305-.44L8.685.036A.42.42,0,0,0,8.13.249l0,.011L7.418,1.977a7.553,7.553,0,0,1-2.993.859A6.778,6.778,0,0,1,1.841,2.08h0a.84.84,0,0,0-1.114.414Q.715,2.521.7,2.549Z" transform="translate(0 0)" fill="#e4e4e4" fill-rule="evenodd"/>
              </g>
            </g>
            <g id="Body_Jacket" data-name="Body/Jacket" transform="translate(1.328 28.557)">
              <path id="Skin-2" data-name="Skin" d="M67.144,0l11.9,11.606A36.059,36.059,0,0,1,87.549,16.5c.5.6,1.038,1.749-1.3,1.235s-4.823-.95-5.263-.189.856,1.926.043,2.922q-.813,1-5.465-6.334L63.193,6.837ZM14.34,1.637l8.776.035Q14.987,27.911,14.34,29.516c-.972,2.408,1.085,6.076,1.964,8.047-2.864,1.282-2.559-3.465-6.172-1.784-3.3,1.534-5.806,4.314-9.617,1.963-.468-.289-.982-1.377.259-2.228,3.09-2.119,7.543-5.827,8.144-7.048Q10.149,25.971,14.34,1.637Z" transform="translate(0 37.428)" fill="#b28b67" fill-rule="evenodd"/>
              <path id="Coat-Back" d="M0,.937,3.563,0Q14.948,22.521,39.9,39.558L29.415,54.832C12.313,38.084,1.114,20.241,0,.937Z" transform="translate(39.361 1.306) rotate(5)" fill="#191847" fill-rule="evenodd"/>
              <path id="Shirt" d="M0,47.876H32.337Q21.1,20.552,21.1,1.453L11.345,0C3.679,12.329,1.514,27.509,0,47.876Z" transform="translate(23.449 0)" fill="#dde3e9" fill-rule="evenodd"/>
              <path id="Coat-Front" d="M25.837.007l0-.007h.637q1.143.039,3.481.142l2.357,6.736Q32.69,19.2,36.684,56.529h-21.2q.083,2.578.275,5.205H0Q3.536,21.836,25.829,0l.008.007Z" transform="translate(8.751 0)" fill="#2f3676" fill-rule="evenodd"/>
              <path id="Shade" d="M1.464,0Q2.369,16.073,6,22.16H.07A110.8,110.8,0,0,1,1.464,0Z" transform="translate(24.173 34.535)" fill="rgba(0,0,0,0.1)" fill-rule="evenodd"/>
              <path id="Light" d="M0,4.859,10.452,0V4.859Z" transform="translate(28.956 38.817)" fill="rgba(255,255,255,0.2)" fill-rule="evenodd"/>
            </g>
          </g>
        </g>
      </g>
      <g id="humaaans_sitting-6" data-name="humaaans/sitting-6" transform="translate(202.833 232.08)">
        <g id="A-Human_Sitting-2" data-name="A-Human/Sitting" transform="translate(129.667 140.865) rotate(180)">
          <g id="Head_Front_Caesar" data-name="Head/Front/Caesar" transform="translate(49.9 109.043)">
            <g id="Head-2" data-name="Head" transform="translate(0.849 0)">
              <path id="Path_288" data-name="Path 288" d="M3.506,16.339A11.494,11.494,0,0,0,.448,24.6c.637,9.08,13.277,7.083,15.736,2.5s2.167-16.208-1.011-17.027c-1.267-.327-3.967.474-6.714,2.13L10.183,0H0Z" fill="#b28b67" fill-rule="evenodd"/>
            </g>
            <path id="Combined-Shape" d="M7.523,5.572a2.042,2.042,0,0,1-1.158.368A2.185,2.185,0,0,1,4.243,3.819,2.519,2.519,0,0,1,5.527,1.465C5.124.676,4.718.1,4.243,0,2.409.186,0,4.743,0,8.486c0,4.1,3.259,7.637,9.334,7.637,5.46,0,7.531-2.251,7.637-4.243-2.34-.643-6.428-.891-12.3-.849v-.424l5.092-.424.849-2.546C9.257,7.738,8.293,6.812,7.523,5.572Z" transform="translate(0 15.699)" fill="#191847" fill-rule="evenodd"/>
          </g>
          <g id="Bottom_Sitting_Sweat-Pants-2" data-name="Bottom/Sitting/Sweat-Pants" transform="translate(13.703 0)">
            <g id="Objects_Seat_Ball" data-name="Objects/Seat/Ball" transform="translate(0 0)">
              <ellipse id="Ballsy-Ball" cx="32.726" cy="31.303" rx="32.726" ry="31.303" transform="translate(0)" fill="#c5cfd6"/>
            </g>
            <path id="Skin-3" data-name="Skin" d="M64.65,0C59.214,12.032,55.282,22.509,53.7,28.037c-2.7,9.465-4.758,17.794-5.277,20.9-1.239,7.417,9.53,7.849,10.954,4.163,2.155-5.579,5.916-23.909,10.435-51.6ZM1.591,37.761c4.988,1.972,22.455,8.142,30.88,9.887,2.421.5,4.767.968,6.973,1.389C46,50.288,49.4,38.459,43.083,37.55c-15.727-2.264-38.023-4.6-39.931-4.863C.477,32.319-1.544,36.521,1.591,37.761Z" transform="translate(29.892 4.812)" fill="#b28b67" fill-rule="evenodd"/>
            <path id="Leg-Back-2" data-name="Leg-Back" d="M26.98,42.1,0,55.835v2.99H3.209q39.152-9.977,40.014-12.787.009-.03.017-.061l.039-.052c5.173-7.114,8.271-41.845,9.288-44.446L42.653,0c-3.792,14.06-15.923,23.855-15.6,40.7A5.517,5.517,0,0,0,26.98,42.1Z" transform="translate(46.381 15.002)" fill="#1f28cf" fill-rule="evenodd"/>
            <path id="Leg-Front-2" data-name="Leg-Front" d="M21.335,10.723c-2.469.494-4.742.935-6.687,1.276C2.083,14.2-1.581,20.929.585,35.6h23.15c3.782-1.086,23.435-9.328,33.632-13.712,6.749-2.9,4.621-13.36.8-16.082a.373.373,0,0,0-.212-.331C37.4-3.042,21.132,1.429,15.7,0L13.186,7.927Z" transform="translate(27.287 38.224)" fill="#2b44ff" fill-rule="evenodd"/>
            <g id="Accessories_Shoe_Flat-Sneaker-3" data-name="Accessories/Shoe/Flat-Sneaker" transform="matrix(0.438, -0.899, 0.899, 0.438, 27.309, 41.757)">
              <path id="shoe-3" data-name="shoe" d="M.712,6.194A9.11,9.11,0,0,1,0,3.35,21.29,21.29,0,0,1,.382,0H24.313q.933,3.084-1.077,3.33T19.9,3.774L8.774,8.732a.424.424,0,0,1-.56-.215l0-.011L7.494,6.772A7.631,7.631,0,0,0,4.471,5.9a6.848,6.848,0,0,0-2.61.763h0A.849.849,0,0,1,.735,6.25Q.723,6.222.712,6.194Z" transform="translate(0 0)" fill="#e4e4e4" fill-rule="evenodd"/>
            </g>
            <g id="Accessories_Shoe_Flat-Sneaker-4" data-name="Accessories/Shoe/Flat-Sneaker" transform="translate(91.356 0.849)">
              <path id="shoe-4" data-name="shoe" d="M.712,6.194A9.11,9.11,0,0,1,0,3.35,21.29,21.29,0,0,1,.382,0H24.313q.933,3.084-1.077,3.33T19.9,3.774L8.774,8.732a.424.424,0,0,1-.56-.215l0-.011L7.494,6.772A7.631,7.631,0,0,0,4.471,5.9a6.848,6.848,0,0,0-2.61.763h0A.849.849,0,0,1,.735,6.25Q.723,6.222.712,6.194Z" transform="translate(0 0)" fill="#e4e4e4" fill-rule="evenodd"/>
            </g>
          </g>
          <g id="Body_Trench-Coat" data-name="Body/Trench-Coat" transform="translate(0 22.488)">
            <path id="Skin-4" data-name="Skin" d="M85.115,28.144,97.923,17.286a36.431,36.431,0,0,0,8.92-4.33c.543-.569,1.17-1.689-1.224-1.336s-4.928.617-5.317-.18,1-1.881.25-2.942q-.749-1.061-5.955,6L81.615,20.975Zm-60.809,8.4,7.36-1.871Q16.888,9.831,15.861,8.416c-1.541-2.123-.422-6.221-.042-8.369C12.7-.509,14.157,4.069,10.2,3.3,6.6,2.606,3.458.494.3,3.73c-.389.4-.626,1.59.8,2.121C4.643,7.173,9.914,9.719,10.8,10.769Q12.619,12.916,24.306,36.546Z" transform="translate(2.549 25.757) rotate(4)" fill="#b28b67" fill-rule="evenodd"/>
            <path id="Back-Arm" d="M32.141,12.276a14.546,14.546,0,0,0,5.666-.848,1.909,1.909,0,0,0,.02-3.612Q38.41,7.391,39,6.97L35.589,0C21.221,7.164,7.717,12.565,1.563,24.392-.5,28.361.2,41.844,0,46.75l4.538,1.861C10.863,35.535,19.424,22.991,32.141,12.276Z" transform="translate(56.506 46.414)" fill="#69a1ac" fill-rule="evenodd"/>
            <path id="Shirt-2" data-name="Shirt" d="M0,1.1q20.009-2.2,31.5,0c.949.182.907,4.272.467,5.39C25.112,23.887,20.6,36.623,20.6,48.708q-1.886-.985-6.6-.3C5.552,35.959,1.669,21.67,0,1.1Z" transform="translate(40.566 46.46)" fill="#191847" fill-rule="evenodd"/>
            <path id="Coat-Front-2" data-name="Coat-Front" d="M25.789,45.5a1.908,1.908,0,0,0-.573,1.723l.221,1.254a1.91,1.91,0,0,0,1.654,1.565q.214.955.367,1.9c.857,5.3-.607,10.5-.538,15.606Q16.685,58.815,8.558,37.393L.544,39.751q.459,1.7.95,3.366C.57,43.642-.511,46.05.267,46.453a9.358,9.358,0,0,0,2.551.882q11.021,33.2,36.047,48.555H43.69C42.269,77.1,61.892,36.084,55.079,1.053,42.484-1.759,24.5,6.991,7,0,7.654,14.107,20.7,30.68,25.789,45.5Z" transform="translate(12.299)" fill="#89c5cc" fill-rule="evenodd"/>
            <path id="Shade-Lapel" d="M3.913,32.246,1.724,25.515l4.408-5.046L2.148,16.5,11.786,0,0,16.47l3.913,4L0,24.928Z" transform="translate(49.002 63.22)" fill="rgba(0,0,0,0.1)" fill-rule="evenodd"/>
            <path id="Buttons" d="M1.7,19.518a1.7,1.7,0,1,0,1.7,1.7A1.7,1.7,0,0,0,1.7,19.518ZM3.819,9.759a1.7,1.7,0,1,0,1.7,1.7A1.7,1.7,0,0,0,3.819,9.759ZM4.243,0a1.7,1.7,0,1,0,1.7,1.7A1.7,1.7,0,0,0,4.243,0Z" transform="translate(56.265 37.338)" fill="rgba(0,0,0,0.4)" fill-rule="evenodd"/>
          </g>
        </g>
      </g>
    </g>
  </g>
</svg>
