<?xml version="1.0" encoding="utf-8"?>
<!-- Generator: Adobe Illustrator 19.2.1, SVG Export Plug-In . SVG Version: 6.00 Build 0)  -->
<svg version="1.1" id="Layer_1" xmlns="http://www.w3.org/2000/svg" xmlns:xlink="http://www.w3.org/1999/xlink" x="0px" y="0px"
	 viewBox="0 0 397.5 140" style="enable-background:new 0 0 397.5 140;" xml:space="preserve">
<style type="text/css">
	.st0{fill:#B71234;}
	.st1{fill:#005BBB;}
	.st2{fill:#455560;}
</style>
<path class="st0" d="M46.1,7.5c2.4,0.6,4.9,0.9,7.2,1.6c9.2,2.8,16.9,7.9,23.8,14.4c1.3,1.2,2.6,2.6,3.9,3.9
	c0.6,0.6,0.5,0.8-0.2,1.2c-17,11.1-27.7,27-34.1,45.9c-3.3,9.6-4.8,19.6-3.8,29.8c0.7,8.2,3,15.9,8.2,22.5c1.1,1.4,2.4,2.7,3.7,3.8
	c0.3,0.3,0.8,0.4,0.8,0.9c-0.6,0.2-1-0.2-1.5-0.4c-9.8-4.6-17.8-11.5-24.6-19.8c-11.2-13.6-18.1-29.2-21-46.5
	c-0.4-2.2-0.4-4.5-0.9-6.8c0-4,0-8.1,0-12.1c0.5-0.2,0.3-0.7,0.3-1c0.7-5.9,2-11.7,4.5-17.2c4.2-9.1,10.6-15.8,20.4-18.8
	c1.9-0.6,3.8-0.9,5.7-1.3C41.1,7.5,43.6,7.5,46.1,7.5z"/>
<path class="st1" d="M96,127.2c3.6-4.1,6.5-8.6,8.5-13.8c3.3-8.6,4.4-17.6,3.8-26.7c-1.4-21.5-9.3-40.5-23-57.1
	c-0.2-0.3-0.5-0.6-0.7-0.9c-0.1-0.1-0.1-0.2-0.1-0.4c9.8-5.1,19.9-8,30.7-3.2c6.7,3,11,8.4,13.8,15c3,7.1,3.8,14.5,3.5,22.1
	c-0.8,15.7-6,29.9-14.6,43c-5.3,8.2-11.9,15.3-19.9,21c-0.6,0.4-1.2,0.8-1.8,1.2C96.1,127.3,96,127.2,96,127.2z"/>
<g>
	<path class="st0" d="M163.6,28.1h17.2c11.8,0,22.8,3.9,22.8,17.8c0,9.2-4.2,14.7-13.1,16.4v0.2c9.1,1.7,15.3,7.6,15.3,17.2
		c0,15.7-12.8,20.6-27.8,20.6h-14.4V28.1z M170.7,94.1h7.4c9.6,0,20.5-2.6,20.5-14.1c0-12.8-11.1-14.2-21.6-14.2h-6.3V94.1z
		 M170.9,59.7h8c7.5,0,17.6-2,17.6-13.4c0-10.4-9.6-11.9-15.7-11.9h-9.8V59.7z"/>
	<path class="st0" d="M249.1,91.8h-0.2c-2.9,6.3-10.2,9.7-16.7,9.7c-15,0-17.4-10.1-17.4-14.9c0-17.7,18.8-18.5,32.5-18.5h1.2v-2.7
		c0-9-3.2-13.5-12-13.5c-5.5,0-10.6,1.2-15.5,4.3v-6.3c4-2,10.9-3.6,15.5-3.6c13,0,18.5,5.9,18.5,19.6v23.3c0,4.2,0,7.4,0.5,11.1
		h-6.4V91.8z M248.5,73.7h-1.9c-11.3,0-24.7,1.1-24.7,12.7c0,6.9,5,9.5,11,9.5c15.3,0,15.6-13.3,15.6-19V73.7z"/>
	<path class="st0" d="M269.4,22.8h6.5v46.4l23.6-21.6h8.4l-25.7,23.4l28.8,29.4h-9l-26-27.1v27.1h-6.5V22.8z"/>
	<path class="st0" d="M351.3,98.6c-4.5,1.9-10.4,2.9-15.3,2.9c-17.5,0-24-11.8-24-27.6c0-16.1,8.9-27.6,22.2-27.6
		c14.9,0,21,12,21,26.2v3.3h-36.1c0,11.2,6,20.2,17.4,20.2c4.8,0,11.7-2,14.8-3.9V98.6z M348.1,70.2c0-9.2-3.7-18.3-13.4-18.3
		c-9.6,0-15.5,9.6-15.5,18.3H348.1z"/>
	<path class="st0" d="M366.7,59.4c0-5.8,0-8-0.4-11.8h6.5v10.1h0.2c2.4-5.9,6.8-11.4,13.5-11.4c1.6,0,3.4,0.3,4.5,0.6v6.8
		c-1.3-0.4-3.1-0.6-4.8-0.6c-10.3,0-13.1,11.6-13.1,21.1v26h-6.5V59.4z"/>
</g>
<g>
	<path class="st2" d="M163.5,114.6h2.1v4.7h3.4v-4.7h2.1V126H169V121h-3.4v5.1h-2.1V114.6z"/>
	<path class="st2" d="M174.6,114.6h6v1.7h-3.9v3.1h3.7v1.7h-3.7v3.4h4.1v1.7h-6.2V114.6z"/>
	<path class="st2" d="M189.5,123.3h-3.9l-0.8,2.8h-2.1l3.8-11.5h2.3l3.7,11.5h-2.2L189.5,123.3z M189.1,121.7l-1.4-5.4h0l-1.6,5.4
		H189.1z"/>
	<path class="st2" d="M194.8,114.6h3.6c2,0,3.4,0.9,3.4,3c0,1.5-0.9,2.5-2.2,2.7v0c0.4,0.1,0.9,0.3,1.3,1.3l1.5,4.4h-2.2l-1.1-3.7
		c-0.3-0.9-0.8-1.2-1.6-1.2h-0.5v4.9h-2.1V114.6z M197.8,119.6c1.1,0,1.9-0.6,1.9-1.7c0-1.3-0.7-1.6-1.9-1.6h-0.9v3.4H197.8z"/>
	<path class="st2" d="M206.7,116.3h-2.6v-1.7h7.2v1.7h-2.5v9.8h-2.1V116.3z"/>
	<path class="st2" d="M224.6,125c-0.7,0.7-1.3,1.2-2.7,1.2c-2.6,0-3.8-1.6-3.8-3.3c0-2,1.4-2.9,2.1-3.3c-0.6-0.7-1.2-1.4-1.2-2.5
		c0-1.1,0.8-2.6,3.1-2.6c2.1,0,2.9,1.3,2.9,2.5c0,1.5-1.3,2.5-2.1,3l1.8,2.3c0.5-0.8,0.6-1.8,0.6-2.6h1.8c0,1.2-0.4,2.9-1.4,4.1
		l1.8,2.3h-2.2L224.6,125z M221.3,120.8c-0.6,0.4-1.2,1-1.2,2c0,1.2,1.1,1.9,1.8,1.9c0.7,0,1.3-0.4,1.7-0.9L221.3,120.8z M222,115.7
		c-0.7,0-1.3,0.5-1.3,1.2c0,0.8,0.6,1.4,1.1,1.9c0.6-0.4,1.4-1.1,1.4-2C223.2,116.1,222.7,115.7,222,115.7z"/>
	<path class="st2" d="M235.3,114.6h3c3.6,0,5.5,1.9,5.5,5.7c0,3.9-2.3,5.7-5.5,5.7h-3V114.6z M237.4,124.4h0.7
		c2.4,0,3.4-1.6,3.4-4.1c0-2.5-1.1-4.1-3.4-4.1h-0.7V124.4z"/>
	<path class="st2" d="M246.7,114.6h2.1V126h-2.1V114.6z"/>
	<path class="st2" d="M258.1,123.3h-3.9l-0.8,2.8h-2.1l3.8-11.5h2.3l3.7,11.5h-2.2L258.1,123.3z M257.6,121.7l-1.4-5.4h0l-1.6,5.4
		H257.6z"/>
	<path class="st2" d="M263.5,114.6h3.4c2.4,0,3.4,0.9,3.4,2.8c0,1.8-1.2,2.4-1.9,2.6v0c0.9,0.2,2.2,0.8,2.2,2.7
		c0,2.1-1.5,3.2-3.6,3.2h-3.5V114.6z M265.5,119.4h1.1c1,0,1.6-0.8,1.6-1.7c0-1-0.7-1.5-1.7-1.5h-1V119.4z M265.5,124.4h1.2
		c1.1,0,1.8-0.7,1.8-1.8c0-1-0.5-1.8-1.8-1.8h-1.1V124.4z"/>
	<path class="st2" d="M273.6,114.6h6v1.7h-3.9v3.1h3.7v1.7h-3.7v3.4h4.1v1.7h-6.2V114.6z"/>
	<path class="st2" d="M284.6,116.3H282v-1.7h7.2v1.7h-2.5v9.8h-2.1V116.3z"/>
	<path class="st2" d="M291.7,114.6h6v1.7h-3.9v3.1h3.7v1.7h-3.7v3.4h4.1v1.7h-6.2V114.6z"/>
	<path class="st2" d="M300.6,123.8c0.4,0.3,1.3,0.7,2.4,0.7c0.9,0,1.7-0.5,1.7-1.7c0-0.8-0.5-1.2-1.5-1.7l-1.1-0.6
		c-1.1-0.6-1.9-1.5-1.9-3c0-2.1,1.7-3.1,3.6-3.1c1.2,0,2.1,0.3,2.4,0.4l-0.1,1.8c-0.5-0.2-1.2-0.5-2.2-0.5c-1.1,0-1.6,0.6-1.6,1.3
		c0,0.9,0.6,1.2,1.2,1.5l1.2,0.7c1.3,0.8,2,1.5,2,3.1c0,2.3-1.7,3.4-3.8,3.4c-1.1,0-2-0.2-2.6-0.5L300.6,123.8z"/>
	<path class="st2" d="M315.3,114.6h2.1V126h-2.1V114.6z"/>
	<path class="st2" d="M321.1,114.6h2.5l3.8,9h0v-9h1.9V126h-2.5l-3.8-8.9h0v8.9h-1.9V114.6z"/>
	<path class="st2" d="M332.6,123.8c0.4,0.3,1.3,0.7,2.4,0.7c0.9,0,1.7-0.5,1.7-1.7c0-0.8-0.5-1.2-1.5-1.7l-1.1-0.6
		c-1.1-0.6-1.9-1.5-1.9-3c0-2.1,1.7-3.1,3.6-3.1c1.2,0,2.1,0.3,2.4,0.4l-0.1,1.8c-0.5-0.2-1.2-0.5-2.2-0.5c-1.1,0-1.6,0.6-1.6,1.3
		c0,0.9,0.6,1.2,1.2,1.5l1.2,0.7c1.3,0.8,2,1.5,2,3.1c0,2.3-1.7,3.4-3.8,3.4c-1.1,0-2-0.2-2.6-0.5L332.6,123.8z"/>
	<path class="st2" d="M343.5,116.3H341v-1.7h7.2v1.7h-2.5v9.8h-2.1V116.3z"/>
	<path class="st2" d="M350.7,114.6h2.1V126h-2.1V114.6z"/>
	<path class="st2" d="M357.9,116.3h-2.6v-1.7h7.2v1.7H360v9.8h-2.1V116.3z"/>
	<path class="st2" d="M367.1,114.6v7.4c0,1.9,0.6,2.5,1.8,2.5c1.2,0,1.8-0.6,1.8-2.5v-7.4h2.1v7.4c0,3-1.7,4.2-3.9,4.2
		c-2.2,0-3.9-1.2-3.9-4.2v-7.4H367.1z"/>
	<path class="st2" d="M377.8,116.3h-2.6v-1.7h7.2v1.7h-2.5v9.8h-2.1V116.3z"/>
	<path class="st2" d="M385,114.6h6v1.7h-3.9v3.1h3.7v1.7h-3.7v3.4h4.1v1.7H385V114.6z"/>
</g>
</svg>
