<svg xmlns="http://www.w3.org/2000/svg" width="37.292" height="60.107" viewBox="0 0 37.292 60.107">
  <g id="组_90" data-name="组 90" transform="translate(0)">
    <path id="路径_325" data-name="路径 325" d="M751.429,326.075c.833.158,1.671.3,2.5.477a18.3,18.3,0,0,1,14.239,15.263,17.505,17.505,0,0,1-4.876,14.9,1.634,1.634,0,0,0-.488,1.23q.021,13.2.013,26.409a1.8,1.8,0,0,1-.47,1.4,1.5,1.5,0,0,1-1.988.108q-4.321-2.534-8.639-5.074c-.539-.317-1.089-.615-1.612-.956a.681.681,0,0,0-.836.006q-5.115,3.033-10.252,6.03a1.5,1.5,0,0,1-1.944-.083,1.651,1.651,0,0,1-.49-1.328c.007-2,0-3.991,0-5.986q0-10.329.007-20.658a1.259,1.259,0,0,0-.381-.981,17.943,17.943,0,0,1,3.937-28.19,19.583,19.583,0,0,1,7.28-2.44c.125-.016.284.04.357-.128Z" transform="translate(-731.057 -326.075)" fill="#6f2800"/>
    <path id="路径_326" data-name="路径 326" d="M853.55,346.3c7.835-.206,15.692,6.046,15.674,15.149A15.3,15.3,0,0,1,853.549,376.6a.864.864,0,0,1-.182-.6c-.008-2.684-.014-5.368,0-8.052a1.21,1.21,0,0,1,.05-.344c.21-.426.491-.206.722-.048q1.063.73,2.111,1.481c.762.547,1.524,1.093,2.3,1.617a1.367,1.367,0,0,0,2.063-.453,1.317,1.317,0,0,0,.024-1.13c-.531-1.594-1.067-3.187-1.595-4.782-.271-.819-.264-.809.415-1.295,1.43-1.023,2.888-2.007,4.295-3.061a1.278,1.278,0,0,0,.54-1.584,1.354,1.354,0,0,0-1.4-.852q-2.521,0-5.041,0c-1.026,0-1.082-.042-1.414-1.025-.462-1.37-.946-2.734-1.359-4.118a2.276,2.276,0,0,0-1.455-1.694.758.758,0,0,1-.251-.625c-.022-1.063-.016-2.127,0-3.191A.782.782,0,0,1,853.55,346.3Z" transform="translate(-834.939 -343.251)" fill="#aa5833"/>
    <path id="路径_327" data-name="路径 327" d="M766.536,367.46q0,4.574,0,9.149a15.155,15.155,0,1,1,0-30.3c0,1.24,0,2.48,0,3.721,0,.243.007.463.242.6-.033.049-.072.106-.129.113-.984.1-1.341.791-1.6,1.63-.461,1.474-.981,2.93-1.45,4.4a.924.924,0,0,1-1.029.732q-2.7-.03-5.4,0a1.315,1.315,0,0,0-1.3,1.8,2.121,2.121,0,0,0,.793.847c1.015.7,2.005,1.431,3.016,2.136.3.212.611.423.912.641.752.547.753.545.455,1.452-.465,1.412-.94,2.82-1.409,4.231a4.292,4.292,0,0,0-.181.619,1.327,1.327,0,0,0,2.037,1.476c.608-.354,1.163-.791,1.741-1.194.9-.626,1.77-1.29,2.687-1.891C766.1,367.511,766.265,367.274,766.536,367.46Z" transform="translate(-747.923 -343.263)" fill="#974e2d"/>
    <path id="路径_328" data-name="路径 328" d="M797.682,565.375a3.446,3.446,0,0,0-1.077.443c-2.828,1.668-5.665,3.321-8.489,5-.436.259-.532.2-.531-.306q.018-10.654.009-21.307c0-.15.015-.3.028-.55a19.5,19.5,0,0,0,10.176,2.891,1.149,1.149,0,0,1,.076.574c-.005,4.1,0,8.2,0,12.306A1.333,1.333,0,0,1,797.682,565.375Z" transform="translate(-779.071 -515.129)" fill="#c48648"/>
    <path id="路径_329" data-name="路径 329" d="M854.607,565.506q0-6.548,0-13.1a1.191,1.191,0,0,1,.115-.737,19.409,19.409,0,0,0,9.955-2.868v22.3c-.23.059-.383-.131-.555-.232q-4.144-2.424-8.278-4.865A3.236,3.236,0,0,0,854.607,565.506Z" transform="translate(-835.996 -515.261)" fill="#d6995c"/>
    <path id="路径_331" data-name="路径 331" d="M824.585,420.046c.678,0,1.357,0,2.035,0a1.543,1.543,0,0,0,1.758-1.288c.223-.658.448-1.314.72-2.111.286.842.513,1.54.76,2.23a1.494,1.494,0,0,0,1.667,1.169c.7,0,1.408,0,2.152,0-.065.278-.312.342-.48.468-.39.294-.8.565-1.2.848a1.535,1.535,0,0,0-.663,1.98c.205.651.428,1.3.641,1.944,0,.015-.007.036-.031.134-.6-.422-1.174-.832-1.754-1.234a1.587,1.587,0,0,0-2.195,0c-.574.4-1.144.81-1.86,1.318.251-.762.451-1.374.654-1.986a1.645,1.645,0,0,0-.737-2.26q-.758-.543-1.518-1.084Z" transform="translate(-810.46 -403.006)" fill="#d6995c"/>
  </g>
</svg>
