<svg xmlns="http://www.w3.org/2000/svg" width="375" height="317.441" viewBox="0 0 375 317.441">
  <g id="Group_360" data-name="Group 360" transform="translate(0 -66)">
    <g id="Group_14" data-name="Group 14" transform="translate(0 -89.5)">
      <rect id="Rectangle_31" data-name="Rectangle 31" width="375" height="223" transform="translate(0 155.5)" fill="#f2f7ff"/>
    </g>
    <path id="Path_297" data-name="Path 297" d="M110.638,400.2h55.171V371.36h24.6v9.331H244.7v8.619h17.814V343.367h59.379v35.627h60.227v24.6H430.47V373.481h54.072v92.886h-373.9Z" transform="translate(-110.638 -177.741)" fill="#e3f1ff"/>
    <g id="humaaans_standing-11" data-name="humaaans/standing-11" transform="translate(178.122 168.494)">
      <g id="A-Human_Standing" data-name="A-Human/Standing" transform="translate(0 0)">
        <g id="Head_Front_Short-Beard" data-name="Head/Front/Short-Beard" transform="translate(43.838 0)">
          <g id="Head" transform="translate(0.045 0.794)">
            <path id="Path_289" data-name="Path 289" d="M3.313,13.83A10.863,10.863,0,0,1,.424,6.025c.6-8.581,12.547-6.693,14.871-2.362s2.048,15.317-.956,16.091c-1.2.309-3.749-.447-6.346-2.013l1.63,11.531H0Z" transform="translate(0 0)" fill="#b28b67" fill-rule="evenodd"/>
          </g>
          <path id="Hair" d="M62.408,36.787q.553,7.7,2.923,7.7c2.371,0,4.383-1.505,5.423-1.505.758,0,.589.949.086,1.653-.415.581-2.434,1.14-2.434,2.04s1.6.2,1.6.737c0,.883.28,2.543-1.252,2.543-1.551,0-6-.565-6.759-2.867q-.738-2.228-.954-9.234a2.432,2.432,0,0,0-.287-.017,2.406,2.406,0,0,0-1.681,4.127c-.557.786-1.181,1.607-1.9,2.454-2.686-1.611-4.679-6.328-2.053-10.86A5.941,5.941,0,0,1,59.43,29.6a6.98,6.98,0,0,1,4.581-.337A14.9,14.9,0,0,1,69.806,30.8c0,2.556-.5,3.315-4.726,3.248A7.8,7.8,0,0,0,62.408,36.787Z" transform="translate(-53.889 -29.02)" fill="#191847" fill-rule="evenodd"/>
        </g>
        <g id="Bottom_Standing_Skinny-Jeans" data-name="Bottom/Standing/Skinny-Jeans" transform="translate(18.219 63.347)">
          <path id="Leg" d="M128,0l14.538,51.016,10.607,37.6h7.736L149.609,0Z" transform="translate(-105.545 0)" fill="#191847" fill-rule="evenodd"/>
          <path id="Leg-2" data-name="Leg" d="M91.637,0C91.3,26.294,90.154,40.636,89.8,43.025S84.11,60.611,73.786,88.617H81.8q19.714-40.3,22.01-45.593C105.341,39.5,110.064,25.155,117.178,0Z" transform="translate(-73.07)" fill="#2f3676" fill-rule="evenodd"/>
          <g id="Accessories_Shoe_Flat-Pointy" data-name="Accessories/Shoe/Flat-Pointy" transform="translate(0 87.414)">
            <path id="Shoe" d="M0,27.421.4,19H8.822A49.674,49.674,0,0,0,24.46,25.817v1.6H9.223l-5.213-.8v.8Z" transform="translate(0 -19)" fill="#191847" fill-rule="evenodd"/>
          </g>
          <g id="Accessories_Shoe_Flat-Pointy-2" data-name="Accessories/Shoe/Flat-Pointy" transform="translate(46.514 87.414)">
            <path id="Shoe-2" data-name="Shoe" d="M0,27.421.4,19H8.822A49.674,49.674,0,0,0,24.46,25.817v1.6H9.223l-5.213-.8v.8Z" transform="translate(0 -19)" fill="#191847" fill-rule="evenodd"/>
          </g>
        </g>
        <g id="Body_Lab-Coat" data-name="Body/Lab-Coat" transform="translate(0 21.036)">
          <path id="Skin" d="M79.065,81.976l12.1,10.262A34.429,34.429,0,0,1,99.6,96.33c.514.538,1.106,1.6-1.157,1.263s-4.657-.584-5.025.17.943,1.778.236,2.78q-.708,1-5.628-5.669L75.757,88.752ZM24.254,77.536l7.1,1.031Q19.92,103.378,19.095,104.81c-1.239,2.148.218,5.889.788,7.87-2.878.831-1.959-3.616-5.6-2.507-3.322,1.012-6.063,3.308-9.354.578-.4-.336-.745-1.433.54-2.072,3.2-1.593,7.906-4.507,8.637-5.581Q15.6,100.9,24.254,77.536Z" transform="translate(-4.564 -46.237)" fill="#b28b67" fill-rule="evenodd"/>
          <path id="Coat-Back" d="M0,1.833,4.257,0C11.5,14.336,21.631,27.934,37.511,38.778L34.4,45.421C20.705,38.889,7.856,34.008,1.846,22.934-.171,19.217.267,6.465,0,1.833Z" transform="translate(49.533 0.52) rotate(5)" fill="#c5cfd6" fill-rule="evenodd"/>
          <path id="Shirt" d="M90,45.128q18.909,2,29.768,0c.9-.166,1.038-1.667.622-2.686-6.477-15.87-10.918-29.717-10.918-40.739q-1.783.9-6.239.269C95.247,13.331,91.577,26.365,90,45.128Z" transform="translate(-55.742 -0.812)" fill="#323337" fill-rule="evenodd"/>
          <path id="Coat-Front" d="M64.583-.311h3.328c.775,4.557,3.219,66.268,10.763,86.455H37.852c.885-18.493,7.866-40.707,14.938-59.3q-9.38,8.584-16.351,29.089l-7.646-1.963Q37.321,17.225,63.86-.046l.114-.264h.294l.326-.208Z" transform="translate(-19.077 0.519)" fill="#dde3e9" fill-rule="evenodd"/>
        </g>
      </g>
    </g>
    <g id="humaaans_standing-12" data-name="humaaans/standing-12" transform="translate(99.37 171.21)">
      <g id="A-Human_Standing-2" data-name="A-Human/Standing" transform="translate(0)">
        <g id="Head_Front_Afro" data-name="Head/Front/Afro" transform="translate(43.379)">
          <path id="Hair-Back" d="M49.237,46.251c-5.873,0-8.009-7.031-11.346-10.89-2.387-2.761-6.462-1.938-7.668-5.8C27.191,19.84,35.308,13,45.9,13s17.729,6,19.27,15.017A15.782,15.782,0,0,1,49.237,46.251Z" transform="translate(-29.581 -13)" fill="#191847" fill-rule="evenodd"/>
          <g id="Head-2" data-name="Head" transform="translate(1.67 9.25)">
            <path id="Path_290" data-name="Path 290" d="M17.337,17.724a13.921,13.921,0,0,0,3.7-10c-.772-11-16.08-8.578-19.058-3.028S-.642,24.323,3.206,25.315c1.535.4,4.8-.573,8.132-2.579L9.25,37.513H21.583Z" transform="translate(0 0)" fill="#b28b67" fill-rule="evenodd"/>
          </g>
          <path id="Hair-2" data-name="Hair" d="M60.284,38.552a3.215,3.215,0,0,1,1.507-.372,3.124,3.124,0,0,1,3.164,3.083,3.019,3.019,0,0,1-.634,1.852,9.876,9.876,0,0,1,1.429,3.868c2.6,0,12.081-9.831,2.634-19.081s-23.1,3.955-19,4.725C51.747,33.07,56.5,35.322,60.284,38.552Z" transform="translate(-46.476 -18.653)" fill="#191847" fill-rule="evenodd"/>
        </g>
        <g id="Bottom_Standing_Shorts" data-name="Bottom/Standing/Shorts" transform="translate(14.73 89.415)">
          <path id="Leg-3" data-name="Leg" d="M164.05,0,144.713,63.219l-9.368,53.764H128L137.9,0Z" transform="translate(-108.037 0)" fill="#997659" fill-rule="evenodd"/>
          <path id="Leg-4" data-name="Leg" d="M115.7,0c-1.313,34.711.232,52.615.526,55.769s4.319,23.6,13.849,62.273l-7.827-2.688c-15.061-35.467-20.193-53.9-21.92-58.557S94.012,33.207,86.564,0Z" transform="translate(-52.768)" fill="#b28b67" fill-rule="evenodd"/>
          <g id="Accessories_Shoe_Flat-Sneaker" data-name="Accessories/Shoe/Flat-Sneaker" transform="translate(48.305 112.196)">
            <path id="shoe-3" data-name="shoe" d="M29.943,22.451A11.034,11.034,0,0,1,30.8,25.9a25.785,25.785,0,0,1-.463,4.057H1.358q-1.13-3.735,1.3-4.033t4.044-.538l13.471-6.006a.514.514,0,0,1,.679.26l.006.013.866,2.1A9.242,9.242,0,0,0,25.39,22.8a8.293,8.293,0,0,0,3.161-.925h0a1.028,1.028,0,0,1,1.363.506Q29.93,22.417,29.943,22.451Z" transform="translate(-1 -19.332)" fill="#e4e4e4" fill-rule="evenodd"/>
          </g>
          <g id="Accessories_Shoe_Flat-Sneaker-2" data-name="Accessories/Shoe/Flat-Sneaker" transform="translate(0 112.196)">
            <path id="shoe-4" data-name="shoe" d="M29.943,22.451A11.034,11.034,0,0,1,30.8,25.9a25.785,25.785,0,0,1-.463,4.057H1.358q-1.13-3.735,1.3-4.033t4.044-.538l13.471-6.006a.514.514,0,0,1,.679.26l.006.013.866,2.1A9.242,9.242,0,0,0,25.39,22.8a8.293,8.293,0,0,0,3.161-.925h0a1.028,1.028,0,0,1,1.363.506Q29.93,22.417,29.943,22.451Z" transform="translate(-1 -19.332)" fill="#e4e4e4" fill-rule="evenodd"/>
          </g>
          <path id="Bottom" d="M156.335,0l-8.222,32.21H123L126.745,0Z" transform="translate(-97.753)" fill="#69a1ac" fill-rule="evenodd"/>
          <path id="Bottom-2" data-name="Bottom" d="M140.258,0q4.058,12.164,1.542,32.21H116.173L109.126,0Z" transform="translate(-77.051 0)" fill="#89c5cc" fill-rule="evenodd"/>
        </g>
        <g id="Body_Jacket" data-name="Body/Jacket" transform="translate(0 35.458)">
          <path id="Skin-2" data-name="Skin" d="M59.661,89.123,45.1,103.324a44.124,44.124,0,0,0-10.411,5.985c-.608.734-1.271,2.14,1.592,1.511s5.9-1.162,6.44-.231-1.047,2.357-.053,3.576q.994,1.218,6.688-7.75L64.5,97.488Zm64.613,2-10.739.042q9.946,32.107,10.739,34.072c1.189,2.947-1.327,7.435-2.4,9.847,3.5,1.568,3.131-4.24,7.552-2.183,4.035,1.877,7.1,5.279,11.767,2.4.573-.354,1.2-1.685-.316-2.726-3.781-2.593-9.23-7.13-9.966-8.624Q129.4,120.9,124.275,91.125Z" transform="translate(-34.163 -43.324)" fill="#b28b67" fill-rule="evenodd"/>
          <path id="Coat-Back-2" data-name="Coat-Back" d="M0,65.947l4.36,1.147q13.93-27.557,44.458-48.4L35.993,0C15.067,20.493,1.363,42.326,0,65.947Z" transform="translate(65.343 68.436) rotate(175)" fill="#191847" fill-rule="evenodd"/>
          <path id="Shirt-2" data-name="Shirt" d="M129.569,58.582H90q13.751-33.434,13.751-56.8L115.687,0C125.067,15.087,127.716,33.661,129.569,58.582Z" transform="translate(-50.604 0)" fill="#dde3e9" fill-rule="evenodd"/>
          <path id="Coat-Front-2" data-name="Coat-Front" d="M68.273.008l0-.008h-.779q-1.4.048-4.26.174L60.345,8.416Q59.887,23.489,55,69.171H80.938q-.1,3.155-.336,6.369H99.888Q95.561,26.72,68.282,0l-.009.008Z" transform="translate(-2.937 0)" fill="#2f3676" fill-rule="evenodd"/>
          <path id="Shade" d="M97.268,82.233Q96.16,101.9,91.723,109.349h7.251a135.581,135.581,0,0,0-1.707-27.116Z" transform="translate(-20.98 -39.975)" fill="rgba(0,0,0,0.1)" fill-rule="evenodd"/>
          <path id="Light" d="M115.9,98.375l-12.79-5.946v5.946Z" transform="translate(-43.673 -44.932)" fill="rgba(255,255,255,0.2)" fill-rule="evenodd"/>
        </g>
      </g>
    </g>
    <g id="smartphone-shake" transform="translate(145.795 80.717)">
      <path id="Path_291" data-name="Path 291" d="M24.416,21H16.5v7.916h7.916Z" transform="translate(22.081 22.12)" fill="#587bb4"/>
      <path id="Path_292" data-name="Path 292" d="M12,15.416A7.916,7.916,0,0,1,19.916,7.5H35.747a7.916,7.916,0,0,1,7.916,7.916V54.994a7.916,7.916,0,0,1-7.916,7.916H19.916A7.916,7.916,0,0,1,12,54.994Zm7.916,0H35.747V54.994H19.916Z" transform="translate(14.708 0)" fill="#587bb4" fill-rule="evenodd"/>
      <path id="Path_293" data-name="Path 293" d="M27,13.5h5.4V37.247H27Z" transform="translate(36.135 9.831)" fill="#587bb4"/>
      <path id="Path_294" data-name="Path 294" d="M0,30.831H4.711V15H0Z" transform="translate(3.205 12.289)" fill="#587bb4"/>
      <path id="Path_295" data-name="Path 295" d="M11.4,37.247H6V13.5h5.4Z" transform="translate(9.177 9.831)" fill="#587bb4"/>
      <path id="Path_296" data-name="Path 296" d="M37.71,15H33V30.831h4.71Z" transform="translate(42.797 12.289)" fill="#587bb4"/>
    </g>
  </g>
</svg>
