<?xml version="1.0" encoding="utf-8"?>
<!-- Generator: Adobe Illustrator 26.0.1, SVG Export Plug-In . SVG Version: 6.00 Build 0)  -->
<svg version="1.1" id="Layer_1" xmlns="http://www.w3.org/2000/svg" xmlns:xlink="http://www.w3.org/1999/xlink" x="0px" y="0px"
	 viewBox="0 0 961.4 618.5" style="enable-background:new 0 0 961.4 618.5;" xml:space="preserve">
<style type="text/css">
	.st0{enable-background:new    ;}
	.st1{fill:#525252;}
	.st2{fill:#8B8B8B;}
	.st3{fill:#587BB4;}
</style>
<g id="Layer_2_00000108286167293228305120000016805676100264150962_">
	<g id="Layer_1-2">
		<g class="st0">
			<path class="st1" d="M18.8,206.7V41.3h55.3c17.5,0,33,2.9,46.5,8.8c13.5,5.9,24.1,14.9,31.7,27.2c7.7,12.2,11.5,27.9,11.5,47.1
				c0,18.5-3.8,33.9-11.5,46.1c-7.7,12.2-18.3,21.3-31.9,27.3c-13.6,6-29.1,8.9-46.6,8.9H18.8z M42.7,185.4h30.8
				c20.7,0,36.7-5.1,48.2-15.3c11.5-10.2,17.2-25.3,17.2-45.3c0-20.2-5.6-35.6-16.7-46.2c-11.2-10.7-27.7-16-49.5-16h-30V185.4z"/>
			<path class="st1" d="M191,70.8v-25h25v25H191z M192.4,206.7V91.4h22.3v115.3H192.4z"/>
			<path class="st1" d="M319.2,206.7l-0.5-13.9c-4.1,5.6-9.8,9.9-17,12.8c-7.2,2.9-14.4,4.3-21.7,4.3c-6.3,0-12.5-1.2-18.7-3.5
				s-11.3-6.1-15.4-11.4c-4.1-5.3-6.1-12.3-6.1-21.1c0-12.4,4.4-22.3,13.1-29.8c8.8-7.4,21.2-11.2,37.4-11.2c3.6,0,7.4,0.1,11.3,0.4
				c3.9,0.2,7.4,0.5,10.5,0.7c3.1,0.2,5.2,0.5,6.2,0.6v-4.2c0-8.6-2.6-14.8-7.8-18.5c-5.2-3.7-12.3-5.6-21.2-5.6
				c-8.6,0-15.5,1.2-20.7,3.6c-5.2,2.4-9.5,4.8-13,7.3l-10.4-15.1c4.1-3.3,9.8-6.5,17.1-9.7c7.3-3.1,17.1-4.7,29.5-4.7
				c14.7,0,26.4,3.6,35,10.8c8.6,7.2,12.9,17.4,12.9,30.6v67.2c0,1.2,0,2.6,0,4.2c0,1.7,0.1,3.6,0.2,6H319.2z M318.4,165.3v-13.1
				c-0.8-0.3-2.7-0.6-5.7-0.9c-3-0.2-6.3-0.5-10-0.7c-3.7-0.2-7.3-0.4-10.8-0.4c-8.3,0-14.6,1.2-19,3.6c-4.4,2.4-7.4,5.4-8.9,8.9
				c-1.6,3.6-2.4,7.1-2.4,10.5c0,6.1,2.1,10.8,6.4,14.1c4.3,3.3,10.2,5,17.9,5c5.8,0,11.1-1.3,16-3.8c4.9-2.6,8.8-5.9,11.9-10
				C316.9,174.3,318.4,169.9,318.4,165.3z"/>
			<path class="st1" d="M370.2,202.7V41.3h22.3V104c2.3-3.1,6.4-6.5,12.4-10c6-3.6,13.7-5.3,23.3-5.3c11.4,0,21,2.6,28.9,7.9
				c7.9,5.3,13.8,12.4,17.7,21.5c4,9,6,19.1,6,30.1c0,12.1-2.7,22.8-8.2,32.1c-5.5,9.3-13,16.7-22.7,21.9c-9.7,5.3-21,7.9-33.9,7.9
				c-9.4,0-18.2-0.7-26.3-2.2C381.7,206.5,375.2,204.7,370.2,202.7z M392.3,141.7v45.9c2.3,0.7,5.2,1.4,8.6,2.1
				c3.4,0.7,8.4,1.1,15,1.1c12.7,0,22.9-4,30.6-11.9c7.7-7.9,11.5-18,11.5-30.3c0-7.1-1.1-13.7-3.3-19.8
				c-2.2-6.1-5.8-11.1-10.7-14.9c-4.9-3.8-11.3-5.7-19.2-5.7c-7.1,0-13.1,1.6-18,4.7c-4.9,3.1-8.5,7.3-10.9,12.4
				C393.5,130.5,392.3,135.9,392.3,141.7z"/>
			<path class="st1" d="M598.6,176.4l12.6,13.4c-1.7,2-4.6,4.6-8.9,7.8c-4.3,3.2-9.9,6.1-16.7,8.7c-6.9,2.6-15.2,3.8-24.9,3.8
				c-11.9,0-22.4-2.6-31.5-7.8c-9.1-5.2-16.2-12.5-21.2-21.8c-5-9.3-7.6-20.1-7.6-32.4c0-11.2,2.4-21.4,7.3-30.5
				c4.9-9.1,11.7-16.3,20.3-21.7c8.7-5.4,18.6-8.1,29.9-8.1c13.4,0,24.2,3.2,32.5,9.7c8.3,6.4,14.3,14.8,18.1,25
				c3.8,10.3,5.7,21.2,5.7,33h-91c0.2,6.8,2,12.9,5.5,18.2c3.5,5.4,8.1,9.6,13.8,12.6c5.7,3.1,11.9,4.6,18.5,4.6
				c9.8,0,17.8-1.7,24.2-5C591.5,182.8,596,179.6,598.6,176.4z M523.2,139h67.9c-0.7-8.9-3.8-16.5-9.4-22.8
				c-5.6-6.3-13.6-9.4-23.8-9.4c-7.1,0-13.2,1.6-18.4,4.7c-5.1,3.1-9.1,7.2-11.8,12C525.1,128.4,523.6,133.5,523.2,139z"/>
		</g>
		<g class="st0">
			<path class="st1" d="M649,169v-59h-20.8V91.4H649V53.7h22.3v37.7H705V110h-33.7v56.8c0,9.3,1.4,15.6,4.3,19.1
				c2.9,3.5,7,5.2,12.3,5.2c4.3,0,7.9-0.7,10.8-2c2.9-1.3,5.7-3.3,8.3-6l10.2,13.6c-4.8,4.6-9.7,8-14.8,10c-5,2.1-11,3.1-18,3.1
				c-12.1,0-21-3.3-26.8-10C651.9,193.2,649,182.9,649,169z"/>
		</g>
		<g class="st0">
			<path class="st1" d="M819.3,176.4l12.6,13.4c-1.7,2-4.6,4.6-8.9,7.8c-4.3,3.2-9.9,6.1-16.7,8.7c-6.9,2.6-15.2,3.8-24.9,3.8
				c-11.9,0-22.4-2.6-31.5-7.8c-9.1-5.2-16.2-12.5-21.2-21.8c-5-9.3-7.6-20.1-7.6-32.4c0-11.2,2.4-21.4,7.3-30.5
				c4.9-9.1,11.7-16.3,20.3-21.7c8.7-5.4,18.6-8.1,29.9-8.1c13.4,0,24.2,3.2,32.5,9.7c8.3,6.4,14.3,14.8,18.1,25
				c3.8,10.3,5.7,21.2,5.7,33h-91c0.2,6.8,2,12.9,5.5,18.2c3.5,5.4,8.1,9.6,13.8,12.6c5.7,3.1,11.9,4.6,18.5,4.6
				c9.8,0,17.8-1.7,24.2-5C812.2,182.8,816.7,179.6,819.3,176.4z M743.9,139h67.9c-0.7-8.9-3.8-16.5-9.4-22.8
				c-5.6-6.3-13.6-9.4-23.8-9.4c-7.1,0-13.2,1.6-18.4,4.7c-5.1,3.1-9.1,7.2-11.8,12C745.8,128.4,744.3,133.5,743.9,139z"/>
			<path class="st1" d="M853.6,192.6l13.6-14.9c4.1,4.1,9.1,7.4,14.9,9.9c5.8,2.5,12.5,3.7,20.1,3.7c7.4,0,13.6-1.2,18.6-3.6
				c5-2.4,7.4-6.2,7.4-11.3c0-3.6-1-6.5-3-8.7c-2-2.1-5.4-4.1-10.2-5.8c-4.8-1.7-11.4-3.6-19.8-5.6c-6-1.5-11.7-3.5-17.4-6.1
				c-5.6-2.6-10.3-6.1-13.9-10.7c-3.6-4.5-5.5-10.5-5.5-17.7c0-7.4,2.2-13.7,6.6-18.8c4.4-5.1,10-9,17-11.5
				c6.9-2.6,14.2-3.8,21.8-3.8c9.8,0,18.2,1.3,25.3,3.8c7.1,2.6,13.2,6.2,18.4,10.8l-12.2,15.4c-3.5-3.1-7.8-5.8-13-7.9
				c-5.2-2.1-11.3-3.2-18.2-3.2c-7.1,0-12.8,1.2-17.1,3.5c-4.3,2.3-6.4,6.1-6.4,11.4c0,5,2.9,8.6,8.7,11c5.8,2.4,13.2,4.7,22.3,6.8
				c7.3,1.7,13.8,3.8,19.7,6.6c5.9,2.7,10.6,6.4,14.1,11c3.6,4.6,5.3,10.7,5.3,18.1c0,7.6-2.3,14-6.8,19.2
				c-4.5,5.2-10.5,9.2-17.7,11.9c-7.3,2.7-15.1,4.1-23.6,4.1C880.8,210.2,864.5,204.3,853.6,192.6z"/>
		</g>
		<g class="st0">
			<path class="st2" d="M63.7,426.1l-14.6,14.3c-5.3-4.1-10.7-9.8-16.3-17.1c-5.6-7.3-10.2-16.2-13.9-26.5s-5.6-21.9-5.6-34.6
				c0-18,3.1-33.7,9.4-47.2c6.3-13.4,14.8-24.6,25.6-33.4c10.8-8.8,23-15.5,36.6-19.9c13.6-4.4,27.8-6.6,42.7-6.6
				c16.3,0,31.3,2.2,45,6.5c13.8,4.3,25.8,10.8,36.2,19.3c10.3,8.6,18.4,19.3,24.1,32.2c5.7,12.9,8.6,27.9,8.6,45
				c0,16.3-1.8,29.7-5.4,40.4c-3.6,10.7-8.2,19.1-13.8,25.3c-5.6,6.2-11.4,10.6-17.6,13.1c-6.2,2.6-11.9,3.8-17.2,3.8
				c-5.7,0-11.3-1.3-16.8-3.8s-9.3-7.3-11.3-14.2c-7.1,7.1-14.4,11.8-21.9,14.2c-7.5,2.4-15.2,3.6-23.2,3.6c-6,0-12.3-1.3-18.8-4
				c-6.5-2.7-12-6.8-16.4-12.6c-4.4-5.7-6.6-13.2-6.6-22.4c0-13.2,4.7-23.9,14-31.9c9.4-8,22.7-12.1,40-12.1
				c6.7,0,12.6,0.2,17.6,0.5c5,0.4,9.1,0.7,12.1,1.1v-4.5c0-8.5-2.7-14.7-8.1-18.7c-5.4-4-12.7-6-21.9-6c-9.5,0-17.1,1.3-22.7,3.8
				c-5.6,2.6-10.2,5.2-13.9,7.8l-11.4-16.4c4.8-3.9,11-7.5,18.8-10.9c7.8-3.4,18.4-5,31.8-5c15.4,0,27.6,3.8,36.8,11.5
				c9.2,7.7,13.8,18.6,13.8,32.7V407c0,4.9,1.1,8.4,3.3,10.5c2.2,2,5,3,8.3,3c4.1,0,8.3-2,12.6-6c4.3-4,8-10.6,11-19.9
				c3-9.3,4.5-21.7,4.5-37.2c0-14.5-2.5-26.9-7.4-37.4c-4.9-10.4-11.8-19-20.4-25.7c-8.7-6.7-18.5-11.7-29.7-14.8
				c-11.1-3.2-22.8-4.8-35-4.8c-10.2,0-20.7,1.5-31.4,4.6c-10.7,3.1-20.5,8-29.3,14.7c-8.8,6.7-16,15.5-21.5,26.5
				c-5.5,11-8.2,24.4-8.2,40.3c0,12,1.5,22.3,4.6,30.9c3.1,8.6,6.8,15.6,11.1,21.2C56.5,418.5,60.4,422.9,63.7,426.1z M156.2,393.2
				v-14.8c-1.8-0.4-5.1-0.8-9.9-1.2c-4.9-0.4-10.9-0.7-18.2-0.7c-8.5,0-15.1,1.3-19.7,3.8c-4.7,2.6-8,5.7-9.8,9.5
				c-1.9,3.8-2.8,7.5-2.8,11c0,6.2,2.3,11,6.9,14.6c4.6,3.5,11,5.3,19.1,5.3c6,0,11.6-1.2,16.8-3.7c5.2-2.5,9.4-5.8,12.7-10.1
				C154.6,402.8,156.2,398.2,156.2,393.2z"/>
			<path class="st2" d="M274.1,436.7V259.9h25.4v73.9h96.7v-73.9h25.4v176.8h-25.4v-80h-96.7v80H274.1z"/>
		</g>
		<g class="st0">
			<path class="st3" d="M517.7,440.4c-12.5,0-23.8-3-33.7-8.9c-9.9-5.9-17.6-13.9-23.2-23.8c-5.6-10-8.3-20.9-8.3-32.7
				c0-12,2.8-23,8.3-32.9c5.6-9.9,13.3-17.8,23.2-23.7c9.9-5.9,21.1-8.9,33.7-8.9c12.5,0,23.7,3,33.5,8.9
				c9.8,5.9,17.5,13.8,23.2,23.7c5.7,9.9,8.5,20.8,8.5,32.9c0,11.8-2.8,22.7-8.5,32.7c-5.7,10-13.4,17.9-23.2,23.8
				C541.4,437.4,530.2,440.4,517.7,440.4z M517.7,419.7c8.7,0,16-2.2,22.1-6.5c6.1-4.3,10.8-9.9,14-16.8c3.3-6.9,4.9-14,4.9-21.5
				s-1.6-14.6-4.9-21.5c-3.3-6.9-8-12.5-14.2-16.8c-6.2-4.3-13.5-6.5-22-6.5c-8.5,0-15.8,2.2-22,6.5c-6.2,4.3-10.9,9.9-14.2,16.7
				c-3.3,6.8-4.9,14-4.9,21.6c0,7.4,1.7,14.5,5,21.3c3.4,6.8,8.1,12.4,14.2,16.8C501.9,417.5,509.2,419.7,517.7,419.7z"/>
		</g>
		<g class="st0">
			<path class="st2" d="M633.8,436.7h-23.8V326.2c0-1.6,0-3.2,0-4.9c0-1.7-0.1-4.3-0.3-7.8h22.8l0.8,18.5c1.9-3,4.6-6.1,8-9.4
				c3.4-3.3,7.7-6.1,13-8.5c5.3-2.4,11.7-3.6,19.1-3.6c9.5,0,17.4,1.9,23.7,5.7c6.3,3.8,11.2,9.3,14.7,16.6c4.9-5.8,11-11,18.3-15.5
				c7.2-4.5,16.1-6.8,26.5-6.8c15.9,0,27.6,4.7,35.2,14.2c7.6,9.5,11.4,22.1,11.4,38v73.9h-23.8v-72.1c0-22.3-8.8-33.4-26.5-33.4
				c-6.5,0-12.4,1.7-17.5,5.2c-5.1,3.4-9.2,8-12.2,13.5c-3,5.6-4.5,11.7-4.5,18.4v68.4h-23.8v-72.1c0-11.5-2.3-19.9-6.9-25.3
				c-4.6-5.4-11-8.1-19.3-8.1c-8.7,0-15.5,2.4-20.7,7.2c-5.1,4.8-8.7,10.8-10.9,18.2c-2.1,7.3-3.2,15-3.2,22.9V436.7z"/>
			<path class="st2" d="M934,404.4l13.5,14.3c-1.8,2.1-4.9,4.9-9.5,8.3c-4.6,3.4-10.6,6.5-17.9,9.3c-7.3,2.7-16.2,4.1-26.6,4.1
				c-12.7,0-23.9-2.8-33.7-8.3c-9.7-5.6-17.3-13.3-22.7-23.3c-5.4-10-8.1-21.5-8.1-34.6c0-12,2.6-22.9,7.8-32.6
				c5.2-9.7,12.5-17.4,21.7-23.2c9.3-5.7,19.9-8.6,31.9-8.6c14.3,0,25.9,3.4,34.7,10.3c8.8,6.9,15.3,15.8,19.3,26.8
				c4.1,11,6.1,22.7,6.1,35.2h-97.3c0.2,7.2,2.1,13.7,5.8,19.5c3.7,5.7,8.6,10.2,14.7,13.5c6.1,3.3,12.7,4.9,19.7,4.9
				c10.4,0,19-1.8,25.8-5.3C926.3,411.2,931.2,407.7,934,404.4z M853.4,364.4H926c-0.7-9.5-4.1-17.7-10.1-24.4
				c-6-6.7-14.5-10.1-25.4-10.1c-7.6,0-14.1,1.7-19.6,5c-5.5,3.4-9.7,7.6-12.6,12.9C855.4,353,853.8,358.5,853.4,364.4z"/>
		</g>
	</g>
</g>
</svg>
